<?xml version="1.0" encoding="utf-8"?>
<svg version="1.1" viewBox="0 0 1828 1828" width="457" height="457" xmlns="http://www.w3.org/2000/svg">
  <path transform="translate(315,607)" d="m0 0h16l5 5v8l-8 7-4 8-5 16-4 18-1 31-1 113v513l4 18 6 11 6 7 18 12 2 4v10l-5 5-7 2-49 6-31 5-16 1h-6l-6-4-3-6 1-6 3-5 14-14 7-11 2-5 1-11v-89l1-3v-65l-2-24-1-4-11 1-37 10-17 6-7 4-1 9v145l1 37 3 14 5 12 7 12 10 11 11 7 11 5 13 3h30l39-6 41-7 54-10 70-12 37-5 57-7 79-8 51-4 37-2 37-3 31-1 4-1h209l5 1 40 1 33 2 24 2 39 3 38 3 83 8 65 8 48 7 84 14 59 11 33 5 10 1h21l17-4 12-5 15-9 6-2h9l6 4 4 4 1 3v10l-5 10-12 13-10 8-15 7-13 4-13 2h-31l-28-3-50-10-37-7-40-7-39-6-45-6-42-6-53-6-54-5-67-5-58-3-31-1-66-1h-74l-78 1-43 2-67 4-86 7-45 5-89 12-51 8-34 6-73 14-28 5-13 1h-54l-17-2-16-6-14-9-13-11-13-13-7-10-9-16-7-19-3-14-1-17-1-71-1-8-1-78-1-533-2-10-7-12-9-10-11-9-8-7-2-3 1-6 4-5 3-2 21-1h80l13 1 5 3 3 3v9l-6 7-11 7-8 10-5 12-1 7-1 45v111l1 33 33-10 33-8 6-3 1-3 1-31 1-2v-111l-1-2-1-22-2-12-6-10-11-10-7-5-3-4 1-5 7-8 1-1 10-1zm-74 291-35 8-16 5-10 7-2 7v74l1 87 1 31 4 1 42-12 26-6 1-7 1-42 1-73v-27l-1-52-1-1z"/>
  <path transform="translate(909,196)" d="m0 0 5 1 6 11 7 4 1 6-8 4-1 7v11l2 14 8 30 9 28 6 16 9 17 1 3 1 94 73 1 6 2 10 11 11 14 11 13 9 11 8 11 1 47 19 1 11 4 9 6 8 8 8 16 3 8 2 1 17 2 16 5 12 6 12 10 8 10 8 16 2 7 1 14 12 3 25 7 19 5 7 4v4l-8 2-54 1h-596l-69-1-7-2 2-4 4-3 15-5 30-8 9-4 2-2 2-16 5-12 9-13 6-7 10-7 16-7 11-3 8-1 4-9 8-16 8-10 10-9 12-6 14-5 8-1 49-2 3-3 5-13 7-11 4-5h2l2-4 9-8 17-9 12-4 16-2v-104l1-32 8-14 9-24 9-30 6-26 3-16 1-13-8-2-1-5 5-4 2-1 2-9zm-9 144-3 9v9l2 2h5v-18l-1-2zm16 0-1 1v10l1 9 5 1v-15l-1-5zm0 58v24l5 1v-23l-1-2zm-18 1-1 6v18h7v-23l-1-1zm9 64-5 5-3 7v17l1 1 16 1 1-1 2-15-4-11-3-3zm57 29-1 1-1 11 2 7 6 1 2-1v-13l-1-5zm-105 24-12 4-12 7-6 7-1 4 5 1 20-5 16-1 17 2 14 7 6 5h2l1 3 5 5 6 5 36 1 15 2 13 5 9 7 11 12 5 5h12l1-3-7-14-7-9-7-7-11-7-13-5-15-3-34-1-5-5-11-9-10-6-14-5-8-2zm189 3-1 7-1 10 2 2h5l1-1v-10l-2-7zm-34 2-2 7v10l6 1 1-1v-16zm35 47-2 7-1 9 2 2h6l-1-16zm-237 3-12 3-12 5-12 7-10 9-7 10-6 12-4 13-62 1-12 2-13 5-13 9-3 4 1 5h7l12-5 9-1h468l17 1 14 5h7l2-4-7-8-10-6-12-4h-16l-3-1-83-1-285-1 2-9 5-10 7-9 10-7 11-5 9-2 16-2 17 3 8 3 15 2 8-1-1-4-8-7-12-7-15-5zm285 12-2 5-1 10 2 2 6-1 2-3-1-7-4-6zm-378 3-3 5v8l1 1h6l1-1v-8l-1-5z"/>
  <path transform="translate(731,984)" d="m0 0h57l13 1 6 5 4 9 11 30 14 42 14 43 11 32 4 9v-27l1-72v-34l-6-10-7-7-7-6-1-2v-6l5-5 2-1h71l4 6v7l-7 6-8 7-4 5-2 12v18l-1 3v155l1 98 2 11 4 5 8 7 3 3 1 7-3 5-2 2-7 1h-42l-6-3-5-12-11-34-14-45-12-38-11-33-10-32-11-33-2-1v181l2 14 5 9 9 8 7 5 3 5v6l-4 5-5 1-16 1h-59l-3-4-1-5 3-7 12-9 6-6 1-6 1-48 1-10v-194l-1-32-3-8-9-10-10-8-2-5z"/>
  <path transform="translate(1322,985)" d="m0 0h86l19 3 16 6 15 9 12 9 13 13 8 13 6 15 2 9v29l-4 15-8 13-8 10-9 10-7 7-7 8-15 15h-2l4 7 7 12 11 30 13 40 10 28 10 30 9 25 6 13 6 9 8 6 14 7 3 5v8l-3 5-9 4-6 1h-13l-15-3-16-8-7-6v-2h-2l-9-12-8-15-9-25-14-43-13-40-7-23-5-8h-5l-6 5-2 8v76l1 21 3 9 4 8 4 5 13 10 3 4v10l-4 5-6 1-19-1-36-5-24-3-8-3-4-4 1-4 4-6 12-11h2l2-4 2-6 1-15 1-3 1-80v-138l-1-58-2-14-5-8-9-7-6-4-4-5 1-5zm73 44-4 3-1 5-1 35v24l1 51 1 14 4-2 8-11 11-14 10-11 8-10 11-13 7-10 3-7 1-9-3-10-6-10-12-12-11-7-10-4-9-2z"/>
  <path transform="translate(551,984)" d="m0 0h65l7 2 5 8-3 6-10 8-7 6-3 5-1 4-1 102 40 1 9 1-1-107-4-10-12-11-2-5 3-6 2-2 5-1 25-1h47l3 6v9l-9 8-8 7-3 6v279l2 18 4 6 9 7 7 5v8l-6 7-54 3h-27l-2-4v-8l5-5 10-8 3-5 2-6 1-35v-54l-1-45h-44l-2 1-1 11-1 37v43l1 33 2 14 9 10 13 11v6l-7 6-10 2-67 6-7-2-5-5 1-5 7-8 12-9 6-12 1-3v-300l-4-7-6-7-5-4-3-5 1-5 5-6z"/>
  <path transform="translate(937,985)" d="m0 0h92l16 3 13 5 11 6 14 10 18 18 7 11 4 8 2 6 1 18 1 79v34l-1 84-3 12-5 12-9 14-10 11-13 10-16 9-11 4-12 2-39 2h-62l-4-4-1-2v-7l4-6 14-10 3-4 1-4 1-19 1-14v-119l-1-41v-95l-4-6-16-12-1-1v-8zm66 43-3 4-1 7-1 74v46l1 98 1 27 1 10 3 3 16-1 20-4 13-7 10-10 3-5 1-17 1-3v-183l-3-8-7-9-4-5-12-9-8-4-17-4z"/>
  <path transform="translate(1555,718)" d="m0 0h41l6 4 1 5-7 8-8 7-1 26-1 7-5 4h-7l-7-6-6-11-6-5-12-3h-23l1 50h10l12-3 11-9 5-3 9 1 5 3 1 7-6 9-8 10 2 6 8 11 2 8-3 5-3 2h-8l-10-4-11-4h-15l-1 22-1 56h15l15-1 8-3 6-8 6-12 4-4 7 1 4 4 1 11v33l8-7 3-5 3-17 2-15 4-5 2-1h10l7 9 8 12 7 6 8 3 5 1h11l14-3 9-6 5-6 3-13 1-10v-27l-2-9-6-5-5-2-8-1-24-1-13-2-12-3-12-7-5-4-7-11-5-12-2-7v-18l5-16 5-9 10-13 11-8 14-7 11-3 19-1h41l21 1 8 2-1 7-8 11-6 5-1 26-3 8-4 2h-7l-9-10-7-8-8-6-10-3h-16l-10 4-6 4-6 8-3 8v8l3 8 7 6 8 3 33 2 14 2 9 4 13 10 8 11 4 9 1 17v40l-2 15-8 16-6 7-15 11-14 7-8 2-18 1h-69l-9-3-3-2-1 5-7 1h-96l-8-1-3-5-1-5 3-5 8-7 2-10 2-73v-103l-3-9-5-5-6-7 1-5 3-2 7-1 23-1z"/>
  <path transform="translate(448,982)" d="m0 0 9 1 13 4 15 8 12 9 8 7v2h2l11 14 9 17 1 4v74l-1 184-8 16-10 14-12 13-12 10-15 8-12 4-18 1-14-3-14-7-10-8-12-12-8-10-8-14-2-4v-271l6-11 9-12 9-10 10-10 10-7 16-7zm-1 43-32 32-1 8v229l3 5 11 12 11 11 7 5 4-1 10-9 8-7 9-11 3-4 2-13 1-45 1-2v-174l-8-11-9-10-7-7-10-8z"/>
  <path transform="translate(1222,982)" d="m0 0 13 1 13 4 12 6 13 10 14 14 10 14 6 12 1 3 1 75v160l-3 17-5 12-8 14-11 12-10 8-17 9-6 2h-31l-12-3-13-7-10-8-13-13-9-14-5-12-1-18-1-3v-140l1-3 1-89 10-19 8-10 11-12 9-8 15-9 13-4zm4 44-10 8-24 24v224l24 24 11 8 5-1 10-9 8-7 4-4v-2h2l4-5 1-3v-221l-3-8-12-13-11-10-5-4z"/>
  <path transform="translate(1637,990)" d="m0 0 73 1 5 3 2 3v7l-10 14-7 8-2 4-1 43-3 13-5 5-10-1-6-5-5-17-5-9-6-7-8-4-14-2h-19l-6 3-1 4v79l1 6 2 1h10l17-4 8-7 10-13 2-2h13l5 4 3 7-1 7-7 11-7 10-4 10v8l7 13 6 9 2 6v8l-5 7-5 2-9-1-6-4-9-7-10-4h-15l-6 2-1 3-1 12v138l1 12 13 9 5 4 5 7v7l-5 5h-64l-9-3-3-5v-13l11-11 1-3v-284l-1-39-3-13-4-7-8-8-4-7 1-6 5-5 11-1 24-1 50-1z"/>
  <path transform="translate(870,1441)" d="m0 0h61l24 1h16l19 2 26 3 20 4 28 10 35 16 23 13 19 8 10 3h8l6-3h2l1-5-4-7-4-6-1-8 4-8 7-5 6-2 7 1 9 4 8 7 6 9 3 8 1 4v11l-3 12-7 11-8 8-16 8-12 3h-24l-19-5-18-8-22-12-15-8-26-11-24-7-21-4-26-3h-90l-3 1h-16l-25 2-28 6-23 7-22 9-23 13-20 11-21 7-5 1h-28l-16-4-10-6-9-9-6-12-3-12v-7l3-12 6-11 8-7 8-3 7-1 11 4 6 7 2 5-1 6-8 12 1 5 7 3h9l15-4 25-12 22-12 20-9 27-9 26-6 17-3z"/>
  <path transform="translate(1341,718)" d="m0 0h39l7 1v11l-8 7-4 6-1 6-1 20v34l36 2-2-61-5-6v-2l-4-2-5-5 1-4 2-6 2-1h57l4 2 1 8-7 8-7 6v102l1 68 1 24 4 2 7 6 1 9-5 6-7 1h-37l-13-1-5-3-1-8 7-9 7-5 1-2 1-23v-41l-1-24-33-2-1 24v27l1 39 13 12 2 5-1 6-3 3-11 2h-39l-11-1-7-3-3-3 2-4 8-7 11-8 1-7v-122l-1-59-2-7-9-8-1-6 2-6z"/>
  <path transform="translate(819,717)" d="m0 0h68l16 6 11 7 8 7 8 16 4 18 1 8v13l-5 11-6 8-12 12-1 2h-2v2l-7 6-1 4 7 15 13 41 11 31 5 7 11 4 5-1 4-1 2 2v8l-12 9-7 2h-25l-10-6-7-11-10-25-13-37-5-11-4 2-2 3v51l1 9 5 5 9 7 1 7-3 6-2 1h-52l-5-1-2-3v-8l2-4 8-8v-191l-8-11-2-3v-7zm46 33-1 2-1 19v39l1 16 5-4 10-13 11-13 9-10 5-8-1-7-6-9-8-7-10-4-6-1z"/>
  <path transform="translate(472,719)" d="m0 0h57l16 1 2 2v10l-6 10-1 3-1 22-2 8-4 5-6 1-8-7-12-13-10-6-11-2-11 1-12 4-9 8-4 9-1 4v8l6 12 2 2 15 2 21 2 22 1 10 3 10 6 10 9 7 9 2 8 1 15v51l-4 12-10 14-6 7-8 7-9 6-7 3-5 1-17 1h-78l-7-2-2-4 2-9 9-8 2-5 1-14 3-20 5-4h9l5 5 8 11 6 8 10 5 17 3 16-2 16-8 4-4v-44l-1-18-2-3-10-2-51-4-9-2-11-6-12-11-7-14-3-12v-19l3-12 6-12 9-12 7-6 16-9 9-3z"/>
  <path transform="translate(1106,718)" d="m0 0h78l7 2v7l-8 12h-2v2l-5 5v24l-3 7-3 2h-8l-4-4-9-11-8-7-9-4-4-1h-15l-11 4-8 6-6 10-1 5v8l5 10 5 4 9 3 23 1 20 2 10 3 14 11 8 10 5 12 1 22v32l-2 17-8 16-8 9-14 10-14 7-3 1-14 1-70 1-14-2-3-3-1-6 3-5 5-6h2l2-5 4-20 2-14 6-5 2-1h6l6 5 7 11 6 8 5 4 8 3 12 1 15-2 8-4 8-7 3-9 2-15v-30l-2-7-6-5-6-2-8-1-30-1-19-5-14-9-7-9-6-13-3-13v-14l4-15 6-12 9-11 8-7 13-8 11-4z"/>
  <path transform="translate(739,718)" d="m0 0h18l17 6 15 9 9 8 9 13 3 9-1 144-1 12-8 12-9 10-9 7-10 6-15 5-14 1-15-2-16-8-10-8-10-10-6-11v-163l3-6 8-10 10-9 16-10 11-4zm5 29-13 11-8 6-1 18v128l1 3 6 4 10 8 5 3 6-1 13-10v-2h2l5-8 2-15v-125l-7-8-14-11z"/>
  <path transform="translate(1254,719)" d="m0 0h60l5 5v5l-14 13-1 19-2 15-3 3h-10l-6-7-6-9-7-6-15-3h-11l-6 1-1 5v162l30-1 8-3 6-8 5-10 4-5 6-1 5 4 1 3v51l-2 4-9 2h-65l-11-2-10-8-5-9-2-11v-52l1-25 1-65 2-30 3-15 5-9 4-5 7-4 10-3z"/>
  <path transform="translate(554,719)" d="m0 0h103l18 1 1 2v45l-1 9-4 3h-6l-5-5-4-5-6-8-6-5-9-3h-2l-1 9v166l1 3 11 9 5 5-2 9-3 3-5 1h-53l-5-5-3-4 2-4 13-11 1-7 1-50v-59l-1-65-12 3-8 7-11 13-5 3-6-2-2-4-1-11v-29l2-13z"/>
  <path transform="translate(974,719)" d="m0 0h38l13 2 3 3v7l-11 11-1 11-1 45-1 80v52l2 4 6 5 6 8 1 6-3 5-3 1-16 1h-32l-8-2-3-3-1-6 3-5 9-10 2-3v-119l-1-65-3-7-8-8-1-2v-6l5-4z"/>
  <path transform="translate(342,719)" d="m0 0h49l7 2 2 3-1 7-9 8-2 6-1 39v130l1 22 4 2 7 5 1 3v8l-4 3h-56l-4-2-3-6 2-5 13-10v-190l-4-8-9-7 2-5z"/>
  <path transform="translate(1475,653)" d="m0 0h89l40 1h38l46 1 20 1 3 2-1 9-3 4-53 2h-279l-62-2-4-9 2-5 2-1 22-1 92-1z"/>
  <path transform="translate(1326,620)" d="m0 0h295l14 1 2 2 1 8-2 4-57 1h-164l-96-1-8-2-1-5 3-5 3-2z"/>
  <path transform="translate(956,1517)" d="M 0 0 L 11 0 L 20 4 L 28 13 L 31 23 L 23 27 L 15 27 L 8.511 14.039 C 7.646 12.137 -3.463 10.122 -6.1 16.953 C -6.627 16.953 -9.55 22.23 -9.237 22.23 C -9.446 20.141 -11.519 28.937 -11.168 32.45 L -6.231 29.745 L 2 27 L 10 27 L 19 31 L 26 37 L 31 46 L 31 64 L 25 76 L 18 82 L 10 85 L 2 86 L -7 84 L -16 78 L -21 71 L -25 60 L -26 53 L -26 33 L -23 21 L -18 12 L -14 7 L -4 1 L 0 0 Z M -3.157 39.783 C -9.362 40.669 -11.243 46.531 -11.195 46.524 C -12.627 45.887 -14.074 55.125 -13.222 55.504 L -10.371 65.18 L -5.633 71.944 L 1.809 75.05 L 11.056 73.69 L 18.058 68.034 L 21.079 60.84 L 20.739 51.594 C 20.312 44.97 13.688 41.213 13.688 41.213 C 13.926 40.657 8.657 37.983 8.419 38.539 C 9.003 37.604 0.089 38.747 -3.157 39.783 Z"/>
  <path transform="translate(1012,1517)" d="M 0 0 L 10 0 L 19 3 L 26 9 L 33 23 L 35 34 L 35 48 L 33 63 L 29 72 L 22 80 L 14 85 L 3 86 L -7 83 L -14 77 L -19 67 L -21 62 L -23 40 L -21 25 L -17 12 L -11 5 L 0 0 Z M 4.854 12.601 C 0.452 12.41 -5.384 19.281 -3.751 19.352 C -5.61 19.765 -7.992 28.87 -7.575 28.777 C -8.513 28.692 -11.942 47.535 -10.562 46.893 C -11.986 45.495 -10.297 54.612 -9.901 56.717 C -10.725 56.58 -5.665 67.966 -4.841 68.103 C -4.878 68.113 -1.059 72.616 3.691 71.854 C 2.58 72.359 8.235 72.527 10.103 70.854 C 10.952 71.364 15.432 67.29 14.927 66.987 C 15.344 68.005 22.258 57.369 21.841 53.751 C 22.75 54.559 23.267 34.595 21.738 33.236 C 22.646 34.062 20.24 25.511 19.871 25.326 C 20.578 24.922 15.163 14.394 13.974 15.073 C 11.603 12.611 6.001 11.817 4.854 12.601 Z"/>
  <path transform="translate(402,653)" d="m0 0 83 1 27 1 6 3-1 7-3 6-9 1-97 1-5 1-4-1-29-1-7-2-3-3v-7l4-4 3-1 31-1z"/>
  <path transform="translate(907,1517)" d="M 0 0 L 10 1 L 11 2 L 10.764 53.238 L 19.823 53.296 L 21.177 57.415 L 20.823 64.766 L 12 66 L 12 77 L 9 83 L 6 85 L 2.708 85.187 L 0.148 83.745 L -1.792 78.725 L -1.792 67.128 L -34 66 L -38 64 L -40 60 L -39 53 L -34 44 L -26 33 L -12 13 L -5 4 L 0 0 Z M -6.892 29.513 L -14.743 40.175 L -22.792 53.616 L -1.479 53.601 L -0.465 19.776 L -6.892 29.513 Z"/>
  <path transform="translate(411,620)" d="m0 0h99l7 3 2 3-1 7-1 2-3 1h-89l-26-1-3-3v-7l3-4z"/>
  <path transform="translate(845,1517)" d="M 0 0 L 9 0 L 11 5 L 11 81 L 9 84 L 1 85 L -1.601 83.206 L -2.498 77.601 L -0.923 16.464 L -12.807 28.335 L -19.528 31.601 L -25 30 L -25 23 L -17 15 L -10.987 9.133 L -4 2 L 0 0 Z"/>
  <path transform="translate(596,1453)" d="m0 0 6 1 5 6v7l-5 5-68 9h-15l-3-3v-8l4-4 10-3 17-3z"/>
  <path transform="translate(1234,1454)" d="m0 0h10l49 7 17 4 5 3 2 4v5l-5 3-7 2-36-5-26-4-13-3-2-2v-8l4-5z"/>
  <path transform="translate(753,1561)" d="m0 0h6l6 5 2 4-1 6-5 5-5 1-7-2-4-5 1-6 4-6z"/>
  <path transform="translate(1075,1562)" d="m0 0 7 2 5 6-1 5-5 5-2 1h-6l-5-4-2-4 1-6 4-4z"/>
</svg>